<svg width="96" height="96" xmlns="http://www.w3.org/2000/svg" xmlns:xlink="http://www.w3.org/1999/xlink" xml:space="preserve" overflow="hidden"><g transform="translate(-592 -372)"><path d="M643.031 460.951 643.031 386.192 651.931 395.092C653.091 396.252 654.971 396.252 656.131 395.092 657.291 393.932 657.291 392.052 656.131 390.892L642.131 376.9C641.026 375.74 639.191 375.695 638.031 376.8 637.997 376.833 637.964 376.866 637.931 376.9L623.941 390.89C622.781 391.995 622.736 393.83 623.841 394.99 623.873 395.024 623.907 395.057 623.941 395.09 625.046 396.25 626.881 396.295 628.041 395.19 628.075 395.158 628.109 395.124 628.141 395.09L637.036 386.195 637.036 460.951C637.036 462.608 638.379 463.951 640.036 463.951 641.693 463.951 643.036 462.608 643.036 460.951Z"/></g></svg>