<svg width="96" height="96" xmlns="http://www.w3.org/2000/svg" xmlns:xlink="http://www.w3.org/1999/xlink" xml:space="preserve" overflow="hidden"><g transform="translate(-592 -372)"><path d="M636.969 379.049 636.969 453.808 628.069 444.908C626.909 443.748 625.029 443.748 623.869 444.908 622.709 446.068 622.709 447.948 623.869 449.108L637.869 463.1C638.974 464.26 640.809 464.305 641.969 463.2 642.003 463.167 642.036 463.134 642.069 463.1L656.059 449.11C657.219 448.005 657.264 446.17 656.159 445.01 656.127 444.976 656.093 444.943 656.059 444.91 654.954 443.75 653.119 443.705 651.959 444.81 651.925 444.842 651.891 444.876 651.859 444.91L642.964 453.805 642.964 379.049C642.964 377.392 641.621 376.049 639.964 376.049 638.307 376.049 636.964 377.392 636.964 379.049Z"/></g></svg>