<svg width="136" height="136" xmlns="http://www.w3.org/2000/svg" xmlns:xlink="http://www.w3.org/1999/xlink" xml:space="preserve" overflow="hidden"><defs><clipPath id="clip0"><path d="M638.658 487.952 572.131 418.741 641.342 352.214 707.869 421.426Z" fill-rule="evenodd" clip-rule="evenodd"/></clipPath><clipPath id="clip1"><path d="M638.658 487.952 572.131 418.741 641.342 352.214 707.869 421.426Z" fill-rule="evenodd" clip-rule="evenodd"/></clipPath><clipPath id="clip2"><path d="M638.658 487.952 572.131 418.741 641.342 352.214 707.869 421.426Z" fill-rule="evenodd" clip-rule="evenodd"/></clipPath></defs><g transform="translate(-572 -352)"><g clip-path="url(#clip0)"><g clip-path="url(#clip1)"><g clip-path="url(#clip2)"><path d="M667.423 389.52 613.526 441.327 613.775 428.743C613.807 427.103 612.504 425.747 610.864 425.715 609.224 425.682 607.868 426.985 607.836 428.625L607.45 448.415C607.38 450.015 608.619 451.369 610.219 451.44 610.267 451.442 610.314 451.443 610.361 451.443L630.142 451.834C631.742 451.905 633.096 450.665 633.167 449.065 633.169 449.018 633.17 448.971 633.17 448.923 633.241 447.323 632.001 445.969 630.401 445.898 630.354 445.896 630.306 445.895 630.259 445.895L617.682 445.647 671.578 393.842C672.772 392.694 672.81 390.794 671.661 389.6 670.513 388.405 668.614 388.368 667.42 389.516Z"/></g></g></g></g></svg>