<svg width="96" height="96" xmlns="http://www.w3.org/2000/svg" xmlns:xlink="http://www.w3.org/1999/xlink" xml:space="preserve" overflow="hidden"><g transform="translate(-592 -372)"><path d="M680.951 416.969 606.192 416.969 615.092 408.069C616.252 406.909 616.252 405.029 615.092 403.869 613.932 402.709 612.052 402.709 610.892 403.869L596.9 417.869C595.74 418.974 595.695 420.809 596.8 421.969 596.833 422.003 596.866 422.036 596.9 422.069L610.89 436.059C611.995 437.219 613.83 437.264 614.99 436.159 615.024 436.126 615.057 436.093 615.09 436.059 616.25 434.954 616.295 433.119 615.19 431.959 615.157 431.925 615.124 431.892 615.09 431.859L606.195 422.964 680.951 422.964C682.608 422.964 683.951 421.621 683.951 419.964 683.951 418.307 682.608 416.964 680.951 416.964Z"/></g></svg>