<svg width="136" height="136" xmlns="http://www.w3.org/2000/svg" xmlns:xlink="http://www.w3.org/1999/xlink" xml:space="preserve" overflow="hidden"><defs><clipPath id="clip0"><path d="M572.175 417.287 642.797 352.259 707.825 422.88 637.203 487.908Z" fill-rule="evenodd" clip-rule="evenodd"/></clipPath><clipPath id="clip1"><path d="M572.175 417.287 642.797 352.259 707.825 422.88 637.203 487.908Z" fill-rule="evenodd" clip-rule="evenodd"/></clipPath><clipPath id="clip2"><path d="M572.175 417.287 642.797 352.259 707.825 422.88 637.203 487.908Z" fill-rule="evenodd" clip-rule="evenodd"/></clipPath></defs><g transform="translate(-572 -352)"><g clip-path="url(#clip0)"><g clip-path="url(#clip1)"><g clip-path="url(#clip2)"><path d="M669.969 448.155 619.329 393.16 631.905 393.678C633.544 393.746 634.927 392.472 634.994 390.833 635.062 389.195 633.788 387.811 632.149 387.744L612.373 386.934C610.775 386.829 609.394 388.039 609.289 389.638 609.286 389.685 609.284 389.732 609.283 389.779L608.468 409.547C608.363 411.145 609.573 412.526 611.172 412.631 611.219 412.634 611.266 412.636 611.313 412.637 612.911 412.742 614.292 411.531 614.397 409.933 614.4 409.886 614.402 409.839 614.403 409.792L614.921 397.223 665.559 452.216C666.681 453.435 668.579 453.513 669.798 452.391 671.017 451.269 671.095 449.371 669.973 448.152Z"/></g></g></g></g></svg>