<svg width="136" height="136" xmlns="http://www.w3.org/2000/svg" xmlns:xlink="http://www.w3.org/1999/xlink" xml:space="preserve" overflow="hidden"><defs><clipPath id="clip0"><path d="M639.682 352.202 707.882 419.765 640.318 487.965 572.119 420.402Z" fill-rule="evenodd" clip-rule="evenodd"/></clipPath><clipPath id="clip1"><path d="M639.682 352.202 707.882 419.765 640.318 487.965 572.119 420.402Z" fill-rule="evenodd" clip-rule="evenodd"/></clipPath><clipPath id="clip2"><path d="M639.682 352.202 707.882 419.765 640.318 487.965 572.119 420.402Z" fill-rule="evenodd" clip-rule="evenodd"/></clipPath></defs><g transform="translate(-572 -352)"><g clip-path="url(#clip0)"><g clip-path="url(#clip1)"><g clip-path="url(#clip2)"><path d="M613.333 451.309 665.947 398.199 666.006 410.785C666.013 412.425 667.349 413.749 668.99 413.741 670.63 413.733 671.953 412.397 671.945 410.757L671.847 390.964C671.878 389.363 670.606 388.039 669.005 388.008 668.958 388.007 668.91 388.007 668.863 388.008L649.079 388.101C647.477 388.07 646.154 389.342 646.122 390.943 646.121 390.991 646.121 391.038 646.123 391.085 646.091 392.686 647.364 394.01 648.965 394.041 649.012 394.042 649.059 394.042 649.106 394.041L661.686 393.982 609.074 447.09C607.908 448.267 607.917 450.166 609.094 451.332 610.271 452.498 612.17 452.489 613.336 451.312Z"/></g></g></g></g></svg>