<svg width="96" height="96" xmlns="http://www.w3.org/2000/svg" xmlns:xlink="http://www.w3.org/1999/xlink" xml:space="preserve" overflow="hidden"><g transform="translate(-592 -372)"><path d="M599.049 423.031 673.808 423.031 664.908 431.931C663.748 433.091 663.748 434.971 664.908 436.131 666.068 437.291 667.948 437.291 669.108 436.131L683.1 422.131C684.26 421.026 684.305 419.191 683.2 418.031 683.167 417.997 683.134 417.964 683.1 417.931L669.11 403.941C668.005 402.781 666.17 402.736 665.01 403.841 664.976 403.874 664.943 403.907 664.91 403.941 663.75 405.046 663.705 406.881 664.81 408.041 664.843 408.075 664.876 408.108 664.91 408.141L673.805 417.036 599.049 417.036C597.392 417.036 596.049 418.379 596.049 420.036 596.049 421.693 597.392 423.036 599.049 423.036Z"/></g></svg>